<svg width="13" height="15" viewBox="0 0 13 15" fill="none" xmlns="http://www.w3.org/2000/svg">
<path d="M5.20825 8.12547C5.43193 8.4843 5.71729 8.78121 6.045 8.99605C6.3727 9.2109 6.73508 9.33866 7.10755 9.37068C7.48002 9.40269 7.85387 9.3382 8.20374 9.18158C8.55362 9.02496 8.87133 8.77989 9.13534 8.46297L10.6978 6.58797C11.1722 5.99859 11.4347 5.2092 11.4288 4.38984C11.4228 3.57047 11.1489 2.78668 10.6661 2.20728C10.1833 1.62788 9.53012 1.29923 8.84732 1.29211C8.16451 1.28499 7.5067 1.59997 7.01554 2.16922L6.11971 3.23797" stroke="#6A8D73" stroke-linecap="round" stroke-linejoin="round"/>
<path d="M7.29165 6.87526C7.06798 6.51643 6.78261 6.21952 6.4549 6.00468C6.1272 5.78983 5.76482 5.66206 5.39235 5.63005C5.01988 5.59804 4.64603 5.66253 4.29616 5.81915C3.94628 5.97577 3.62857 6.22084 3.36457 6.53776L1.80207 8.41276C1.3277 9.00214 1.06521 9.79153 1.07114 10.6109C1.07708 11.4303 1.35095 12.214 1.83379 12.7934C2.31662 13.3728 2.96978 13.7015 3.65258 13.7086C4.33539 13.7157 4.99321 13.4008 5.48436 12.8315L6.37498 11.7628" stroke="#6A8D73" stroke-linecap="round" stroke-linejoin="round"/>
</svg>
