<svg width="55" height="47" viewBox="0 0 55 47" fill="none" xmlns="http://www.w3.org/2000/svg">
<path fill-rule="evenodd" clip-rule="evenodd" d="M27.4249 2.68724C28.2426 1.09171 29.8328 0.00361693 31.6417 0.00276043C34.2428 0.00152877 36.311 2.24904 36.2611 5.02272C36.439 8.83011 27.781 17.974 27.154 17.3568C26.4137 17.8489 18.1957 8.80916 18.5086 5.02771C18.5584 2.25563 20.7063 0.0074102 23.306 0.0061793C25.1146 0.00532296 26.6654 1.09224 27.4249 2.68724Z" fill="#6A8D73"/>
<path fill-rule="evenodd" clip-rule="evenodd" d="M28.1793 17.768C27.4186 18.2227 32.9791 29.4529 36.5029 30.3511C39.013 31.185 41.7205 29.7544 42.5504 27.1558C43.1275 25.3485 42.6444 23.4522 41.4522 22.1844C43.1474 21.8765 44.6327 20.6347 45.2097 18.8278C46.0391 16.2307 44.6778 13.4497 42.1692 12.6163C38.8245 11.2347 27.9619 16.8916 28.1793 17.768Z" fill="#6A8D73"/>
<path fill-rule="evenodd" clip-rule="evenodd" d="M12.6414 22.0252C10.9729 21.6407 9.58688 20.3335 9.15159 18.5034C8.52572 15.8719 10.1023 13.1557 12.6729 12.4366C16.1424 11.2001 26.6573 17.4235 26.238 18.229C26.8729 18.8374 20.5058 29.6648 16.9416 30.3977C14.3725 31.1164 11.7827 29.5669 11.1572 26.9369C10.722 25.1071 11.3523 23.2362 12.6414 22.0252Z" fill="#6A8D73"/>
<path d="M27.5133 19.9C27.4481 19.6838 27.2638 19.5289 27.0405 19.499C26.9019 19.4805 26.7844 19.6099 26.813 19.7475C27.6634 23.84 27.6504 26.7332 26.9041 29.6443C26.6942 30.463 26.7487 31.3278 27.1295 32.0636C27.5262 32.83 28.5879 32.665 28.6876 31.7933C29.0511 28.6179 28.8194 24.2334 27.5133 19.9Z" fill="#6A8D73"/>
<path d="M5.93743 43.7419C4.38418 43.7419 3.07644 43.321 2.01422 42.4793C0.951992 41.6375 0.420881 40.43 0.420881 38.8567C0.420881 37.9347 0.596248 37.113 0.946982 36.3915C1.29772 35.67 1.75868 35.1038 2.32988 34.693C3.48229 33.8512 4.77499 33.4303 6.20799 33.4303C7.03973 33.4303 7.90655 33.5806 8.80843 33.8813L8.65812 34.9034C8.18713 34.703 7.82137 34.5527 7.56082 34.4525C6.80925 34.1819 6.05267 34.0466 5.29107 34.0466C4.23887 34.2871 3.42717 34.8082 2.85598 35.6099C2.2948 36.4116 2.01422 37.4137 2.01422 38.6162C2.01422 40.0893 2.40002 41.2266 3.17164 42.0283C3.94325 42.82 4.96038 43.2158 6.22302 43.2158C7.48567 43.2158 8.42764 42.9452 9.04894 42.4041V43.2308C8.18713 43.5715 7.14996 43.7419 5.93743 43.7419ZM10.7751 43.5615V33.6107H12.2482V42.7498C12.8595 42.9302 13.3505 43.0204 13.7213 43.0204L16.4419 42.5544L16.2616 43.5615H10.7751ZM22.5493 33.4303C23.852 33.4303 24.9293 33.8612 25.7811 34.723C26.6328 35.5748 27.0587 36.7623 27.0587 38.2855C27.0587 39.2675 26.8884 40.1293 26.5477 40.8709C26.207 41.6024 25.761 42.1686 25.2099 42.5694C24.1376 43.3511 22.9551 43.7419 21.6624 43.7419C20.3697 43.7419 19.2975 43.311 18.4457 42.4492C17.6039 41.5774 17.1831 40.3799 17.1831 38.8567C17.1831 38.065 17.2933 37.3535 17.5138 36.7222C17.7442 36.0809 18.0399 35.5598 18.4006 35.1589C18.7714 34.7581 19.1973 34.4224 19.6783 34.1518C20.5601 33.6708 21.5171 33.4303 22.5493 33.4303ZM19.528 41.8479C19.7885 42.2889 20.1393 42.6346 20.5802 42.8851C21.0211 43.1256 21.5272 43.2459 22.0984 43.2459C22.6796 43.2459 23.1957 43.1006 23.6466 42.81C24.0975 42.5193 24.4483 42.1385 24.6988 41.6676C25.2099 40.7256 25.4654 39.7135 25.4654 38.6312C25.4654 37.2984 25.1998 36.2262 24.6687 35.4145C24.0775 34.5026 23.1005 34.0466 21.7376 34.0466C20.7656 34.3873 20.029 34.9736 19.528 35.8053C19.0269 36.637 18.7764 37.579 18.7764 38.6312C18.7764 39.9139 19.0269 40.9861 19.528 41.8479ZM32.1034 43.802L27.6391 33.6107H29.2775L32.5844 41.7577L35.5607 33.6107H36.3122L32.3439 43.802H32.1034ZM37.7354 43.5615V33.6107H43.763L43.6127 34.6178L40.8169 34.1518C40.3258 34.1518 39.7847 34.237 39.1935 34.4074V38.06H42.5304V38.6312H39.1935V43.0204L43.8532 42.5544L43.7029 43.5615H37.7354ZM47.5739 38.8116V43.5615H46.1008V33.6107H49.3476C50.3597 33.6107 51.1864 33.8362 51.8278 34.2871C52.4791 34.7381 52.8048 35.3343 52.8048 36.0759C52.8048 36.8074 52.5443 37.3886 52.0232 37.8195C51.5121 38.2404 50.8156 38.531 49.9338 38.6913L53.9622 43.5615L52.2186 43.772L48.7313 38.8116H47.5739ZM47.5739 38.3606H48.5359C50.3396 38.3606 51.2415 37.6492 51.2415 36.2262C51.2415 35.9857 51.1814 35.7151 51.0612 35.4145C50.8307 34.7832 50.3396 34.3673 49.5881 34.1669C48.9066 34.1669 48.2352 34.252 47.5739 34.4224V38.3606Z" fill="#6A8D73"/>
</svg>
