<svg width="44" height="41" viewBox="0 0 44 41" fill="none" xmlns="http://www.w3.org/2000/svg">
<path fill-rule="evenodd" clip-rule="evenodd" d="M22.0142 3.02887C22.9359 1.23053 24.7283 0.00413347 26.7671 0.00316808C29.6989 0.00177983 32.03 2.53504 31.9738 5.66137C32.1744 9.95284 22.4155 20.2594 21.7088 19.5635C20.8739 20.1176 11.6117 9.92904 11.9643 5.66693C12.0205 2.54241 14.4414 0.0083524 17.3716 0.00696491C19.4102 0.00599964 21.1581 1.2311 22.0142 3.02887Z" fill="#D9D9D9"/>
<path fill-rule="evenodd" clip-rule="evenodd" d="M22.8644 20.0264C22.0074 20.5394 28.2746 33.1968 32.2464 34.2093C35.0756 35.1492 38.1273 33.5367 39.0627 30.6077C39.7132 28.5707 39.1687 26.4334 37.8251 25.0044C39.7358 24.6574 41.4098 23.2576 42.0601 21.2211C42.9949 18.2938 41.4606 15.1592 38.633 14.2199C34.8633 12.6627 22.6211 19.0379 22.8644 20.0264Z" fill="#D9D9D9"/>
<path fill-rule="evenodd" clip-rule="evenodd" d="M5.3509 24.8249C3.4704 24.3915 1.90837 22.9181 1.41777 20.8554C0.712332 17.8894 2.48932 14.8278 5.38678 14.0173C9.2973 12.6237 21.1483 19.6378 20.6766 20.5461C21.3905 21.234 14.215 33.4357 10.1981 34.2617C7.30229 35.0717 4.38323 33.3253 3.67818 30.3609C3.18766 28.2985 3.89802 26.1899 5.3509 24.8249Z" fill="#D9D9D9"/>
<path d="M22.1137 22.4307C22.0402 22.187 21.8324 22.0124 21.5807 21.9787C21.4246 21.9578 21.2921 22.1037 21.3243 22.2588C22.2829 26.8716 22.2683 30.1326 21.427 33.4138C21.1904 34.3367 21.2519 35.3114 21.6811 36.1407C22.1282 37.0045 23.3249 36.8186 23.4373 35.8361C23.847 32.257 23.5859 27.3151 22.1137 22.4307Z" fill="#D9D9D9"/>
</svg>
