<svg width="20" height="21" viewBox="0 0 20 21" fill="none" xmlns="http://www.w3.org/2000/svg">
<path d="M10.3333 2C5.73333 2 2 5.73333 2 10.3333C2 14.9333 5.73333 18.6667 10.3333 18.6667C14.9333 18.6667 18.6667 14.9333 18.6667 10.3333C18.6667 5.73333 14.9333 2 10.3333 2ZM14.2 7.66667C14.075 8.98333 13.5333 12.1833 13.2583 13.6583C13.1417 14.2833 12.9083 14.4917 12.6917 14.5167C12.2083 14.5583 11.8417 14.2 11.375 13.8917C10.6417 13.4083 10.225 13.1083 9.51667 12.6417C8.69167 12.1 9.225 11.8 9.7 11.3167C9.825 11.1917 11.9583 9.25 12 9.075C12.0058 9.04849 12.005 9.02098 11.9978 8.99484C11.9905 8.9687 11.977 8.94472 11.9583 8.925C11.9083 8.88333 11.8417 8.9 11.7833 8.90833C11.7083 8.925 10.5417 9.7 8.26667 11.2333C7.93333 11.4583 7.63333 11.575 7.36667 11.5667C7.06667 11.5583 6.5 11.4 6.075 11.2583C5.55 11.0917 5.14167 11 5.175 10.7083C5.19167 10.5583 5.4 10.4083 5.79167 10.25C8.225 9.19167 9.84167 8.49167 10.65 8.15833C12.9667 7.19167 13.4417 7.025 13.7583 7.025C13.825 7.025 13.9833 7.04167 14.0833 7.125C14.1667 7.19167 14.1917 7.28333 14.2 7.35C14.1917 7.4 14.2083 7.55 14.2 7.66667Z" fill="#DD0A35"/>
</svg>
